<svg width="297" height="399" viewBox="0 0 297 399" fill="none" xmlns="http://www.w3.org/2000/svg">
<circle cx="149" cy="288" r="100" fill="white"/>
<path d="M203.715 304.858C202.841 301.364 199.275 299.275 195.758 300.053C180.96 303.323 164.433 304.75 149 304.75C133.567 304.75 117.04 303.323 102.242 300.053C98.725 299.275 95.1589 301.364 94.2854 304.858C93.4331 308.268 95.4676 311.741 98.8944 312.519C103.14 313.484 107.545 314.321 111.996 315.032C122.266 316.671 130.25 325.242 130.25 335.643V392.25C130.25 395.702 133.048 398.5 136.5 398.5C139.952 398.5 142.75 395.702 142.75 392.25V367.25C142.75 363.798 145.548 361 149 361C152.452 361 155.25 363.798 155.25 367.25V392.25C155.25 395.702 158.048 398.5 161.5 398.5C164.952 398.5 167.75 395.702 167.75 392.25V335.643C167.75 325.242 175.734 316.671 186.004 315.032C190.455 314.321 194.86 313.484 199.106 312.519C202.532 311.741 204.567 308.268 203.715 304.858ZM149 298.5C155.875 298.5 161.5 292.875 161.5 286C161.5 279.125 155.875 273.5 149 273.5C142.125 273.5 136.5 279.125 136.5 286C136.5 292.875 142.125 298.5 149 298.5Z" fill="#0779E4"/>
<path d="M63.216 35.2L47.232 54.928H29.376L40.896 35.2H63.216ZM56.016 64H74.592V136H56.016V127.936C51.504 134.656 44.352 138.016 34.56 138.016C26.688 138.016 20.16 135.376 14.976 130.096C9.888 124.816 7.344 117.52 7.344 108.208V64H25.92V105.904C25.92 110.704 27.216 114.4 29.808 116.992C32.4 119.488 35.856 120.736 40.176 120.736C44.976 120.736 48.816 119.248 51.696 116.272C54.576 113.296 56.016 108.832 56.016 102.88V64ZM171.237 61.984C179.493 61.984 186.069 64.672 190.965 70.048C195.957 75.424 198.453 82.624 198.453 91.648V136H179.877V92.944C179.877 88.624 178.821 85.264 176.709 82.864C174.597 80.464 171.621 79.264 167.781 79.264C163.557 79.264 160.245 80.656 157.845 83.44C155.541 86.224 154.389 90.256 154.389 95.536V136H135.813V92.944C135.813 88.624 134.757 85.264 132.645 82.864C130.533 80.464 127.557 79.264 123.717 79.264C119.589 79.264 116.277 80.656 113.781 83.44C111.381 86.224 110.181 90.256 110.181 95.536V136H91.6054V64H110.181V71.632C114.501 65.2 121.173 61.984 130.197 61.984C139.029 61.984 145.557 65.44 149.781 72.352C154.581 65.44 161.733 61.984 171.237 61.984ZM223.446 55.36C220.374 55.36 217.686 54.256 215.382 52.048C213.174 49.744 212.07 47.056 212.07 43.984C212.07 40.912 213.174 38.224 215.382 35.92C217.686 33.616 220.374 32.464 223.446 32.464C226.614 32.464 229.302 33.616 231.51 35.92C233.814 38.224 234.966 40.912 234.966 43.984C234.966 47.056 233.814 49.744 231.51 52.048C229.302 54.256 226.614 55.36 223.446 55.36ZM214.23 136V64H232.806V136H214.23ZM290.993 81.856H274.721V111.808C274.721 114.304 275.345 116.128 276.593 117.28C277.841 118.432 279.665 119.104 282.065 119.296C284.465 119.392 287.441 119.344 290.993 119.152V136C278.225 137.44 269.201 136.24 263.921 132.4C258.737 128.56 256.145 121.696 256.145 111.808V81.856H243.617V64H256.145V49.456L274.721 43.84V64H290.993V81.856Z" fill="white"/>
</svg>
