<svg width="36" height="36" viewBox="0 0 36 36" fill="none" xmlns="http://www.w3.org/2000/svg">
<path d="M13.5 8.25C13.5 9.495 14.505 10.5 15.75 10.5H21V26.25C21 27.495 22.005 28.5 23.25 28.5C24.495 28.5 25.5 27.495 25.5 26.25V10.5H30.75C31.995 10.5 33 9.495 33 8.25C33 7.005 31.995 6 30.75 6H15.75C14.505 6 13.5 7.005 13.5 8.25ZM6.75 18H9V26.25C9 27.495 10.005 28.5 11.25 28.5C12.495 28.5 13.5 27.495 13.5 26.25V18H15.75C16.995 18 18 16.995 18 15.75C18 14.505 16.995 13.5 15.75 13.5H6.75C5.505 13.5 4.5 14.505 4.5 15.75C4.5 16.995 5.505 18 6.75 18Z" fill="black"/>
</svg>
